<?xml version="1.0" standalone="no"?>
<!DOCTYPE svg PUBLIC "-//W3C//DTD SVG 20010904//EN"
 "http://www.w3.org/TR/2001/REC-SVG-20010904/DTD/svg10.dtd">
<svg version="1.0" xmlns="http://www.w3.org/2000/svg"
 width="262.000000pt" height="73.000000pt" viewBox="0 0 262.000000 73.000000"
 preserveAspectRatio="xMidYMid meet">
<metadata>
Created by potrace 1.16, written by Peter Selinger 2001-2019
</metadata>
<g transform="translate(0.000000,73.000000) scale(0.100000,-0.100000)"
fill="#000000" stroke="none">
<path d="M670 375 l0 -205 30 0 30 0 0 104 c0 101 1 105 26 125 36 29 116 29
144 1 17 -17 20 -33 20 -125 l0 -105 30 0 30 0 0 99 c0 114 -8 143 -46 168
-36 23 -132 23 -168 0 -14 -10 -28 -17 -31 -17 -3 0 -5 36 -5 80 l0 80 -30 0
-30 0 0 -205z"/>
<path d="M200 360 l0 -193 133 5 c134 5 161 11 205 51 32 30 31 89 -4 116 -14
11 -35 23 -46 26 -17 6 -16 9 14 25 40 21 54 54 39 93 -17 44 -67 59 -213 65
l-128 5 0 -193z m255 138 c39 -18 44 -56 11 -85 -24 -20 -37 -23 -117 -23
l-89 0 0 60 0 60 85 0 c46 0 96 -5 110 -12z m8 -159 c29 -16 37 -28 37 -61 0
-17 -9 -34 -26 -47 -23 -18 -41 -21 -120 -21 l-94 0 0 70 0 70 91 0 c50 0 100
-5 112 -11z"/>
<path d="M1192 449 c-52 -12 -106 -64 -116 -109 -27 -136 145 -225 285 -148
47 26 69 65 69 121 0 50 -30 96 -79 121 -37 20 -109 26 -159 15z m155 -63 c36
-42 33 -118 -6 -157 -26 -25 -37 -29 -85 -29 -47 0 -61 4 -88 29 -29 26 -33
35 -33 81 0 46 4 55 34 82 31 28 38 30 94 26 50 -4 64 -9 84 -32z"/>
<path d="M1530 287 c0 -187 -3 -197 -52 -197 -17 0 -28 -5 -28 -14 0 -36 89
-28 120 11 18 23 20 41 20 199 l0 174 -30 0 -30 0 0 -173z"/>
<path d="M1804 449 c-23 -5 -55 -22 -70 -37 l-29 -27 28 -3 c16 -2 38 5 53 17
36 28 123 29 147 3 10 -10 17 -28 17 -39 0 -18 -9 -21 -82 -27 -92 -8 -139
-26 -158 -61 -17 -31 -3 -66 35 -91 36 -23 130 -24 173 -1 29 16 33 16 38 2 4
-8 18 -15 33 -15 l26 0 -3 113 c-4 114 -11 135 -52 157 -26 14 -114 19 -156 9z
m146 -178 c0 -34 -4 -41 -34 -55 -90 -42 -201 11 -138 66 22 20 44 25 115 27
l57 1 0 -39z"/>
<path d="M2130 315 l0 -145 30 0 30 0 0 103 c0 91 2 106 20 122 28 26 113 32
145 11 24 -16 25 -20 25 -126 l0 -110 30 0 30 0 0 106 c0 139 -15 166 -96 179
-37 5 -71 -2 -136 -30 -14 -5 -18 -2 -18 14 0 17 -6 21 -30 21 l-30 0 0 -145z"/>
</g>
</svg>
